<svg xmlns="http://www.w3.org/2000/svg" viewBox="-18359.627 967 43.729 43.728">
  <defs>
    <style>
      .cls-1 {
        fill: #fff;
      }
    </style>
  </defs>
  <g id="logo" transform="translate(-18446 967)">
    <path id="Path_1219" data-name="Path 1219" class="cls-1" d="M72.764,0A21.864,21.864,0,1,0,94.628,21.864,21.937,21.937,0,0,0,72.764,0m7.927,40.4V26.339h0V17.517a7.242,7.242,0,0,0-2.174-5.242A7.411,7.411,0,0,0,73.787,10.1H72.764a2.815,2.815,0,0,0-1.023.128h0a7.464,7.464,0,0,0-2.813,1.023h0v2.3a5.121,5.121,0,0,1,3.708-1.534h.639a5.317,5.317,0,0,1,3.964,1.662A5.317,5.317,0,0,1,78.9,17.645v8.822h0V41.3a19.27,19.27,0,0,1-6.137.9,20.245,20.245,0,0,1-20.2-20.2A20.569,20.569,0,0,1,64.837,3.324V17.517h0v8.822h0a7.242,7.242,0,0,0,2.174,5.242,7.411,7.411,0,0,0,4.731,2.174h1.023a2.815,2.815,0,0,0,1.023-.128h0A7.464,7.464,0,0,0,76.6,32.6V30.3a5.414,5.414,0,0,1-3.836,1.534h-.511a5.127,5.127,0,0,1-3.964-1.662,5.317,5.317,0,0,1-1.662-3.964h0V19.179h0V9.973h0V2.557a19.27,19.27,0,0,1,6.137-.9A20.177,20.177,0,0,1,80.691,40.4" transform="translate(35.472)"/>
  </g>
</svg>
