<svg id="Group_1889" data-name="Group 1889" xmlns="http://www.w3.org/2000/svg" viewBox="-6279 9175 192.3 103.61">
  <defs>
    <style>
      .cls-1 {
        fill: #fff;
      }
    </style>
  </defs>
  <g id="Group_1888" data-name="Group 1888" transform="translate(-132 68.865)">
    <path id="Path_1514" data-name="Path 1514" class="cls-1" d="M6.216,70.4a5.665,5.665,0,0,1-4.379-1.836A6.184,6.184,0,0,1,0,64.042V43.7H1.554v8.9c0-.141.141-.283.424-.565a4.293,4.293,0,0,1,.989-.706,6.562,6.562,0,0,1,3.249-.848H6.64a5.665,5.665,0,0,1,4.379,1.836A5.874,5.874,0,0,1,12.855,56.7v7.487A6.184,6.184,0,0,1,11.019,68.7,6.451,6.451,0,0,1,6.64,70.4Zm3.814-2.967A4.715,4.715,0,0,0,11.3,64.184V56.7a4.591,4.591,0,0,0-1.413-3.39A4.382,4.382,0,0,0,6.5,51.893H6.216a4.591,4.591,0,0,0-3.39,1.413A4.382,4.382,0,0,0,1.413,56.7v7.346a4.591,4.591,0,0,0,1.413,3.39,4.591,4.591,0,0,0,3.39,1.413h.565a5.274,5.274,0,0,0,3.249-1.413" transform="translate(-6147 9132.282)"/>
    <path id="Path_1515" data-name="Path 1515" class="cls-1" d="M17.522,48.4A5.665,5.665,0,0,1,21.9,50.236a5.53,5.53,0,0,1,1.413,2.26,8.225,8.225,0,0,1,.424,2.684H22.184a10.9,10.9,0,0,0-.283-2.119,2.812,2.812,0,0,0-1.13-1.7,4.382,4.382,0,0,0-3.39-1.413h-.424a4.591,4.591,0,0,0-3.39,1.413,4.382,4.382,0,0,0-1.413,3.39V68.036H10.6V54.757a5.665,5.665,0,0,1,1.836-4.379,5.874,5.874,0,0,1,4.379-1.836h.706Z" transform="translate(-6142.625 9134.222)"/>
    <rect id="Rectangle_1564" data-name="Rectangle 1564" class="cls-1" width="1.554" height="18.647" transform="translate(-6115.921 9183.471)"/>
    <path id="Path_1516" data-name="Path 1516" class="cls-1" d="M27.536,68.563A5.874,5.874,0,0,1,25.7,64.184V56.7a5.665,5.665,0,0,1,1.836-4.379,5.874,5.874,0,0,1,4.379-1.836h.424a6.192,6.192,0,0,1,3.249.848,4.293,4.293,0,0,1,.989.706c.283.283.565.565.424.565V43.7h1.554V64.042a6.184,6.184,0,0,1-1.836,4.521A5.874,5.874,0,0,1,32.34,70.4h-.424a6.458,6.458,0,0,1-4.379-1.836m4.521.283h.424a4.823,4.823,0,0,0,4.8-4.8V56.555a4.591,4.591,0,0,0-1.413-3.39,4.382,4.382,0,0,0-3.39-1.413h-.424a4.591,4.591,0,0,0-3.39,1.413,4.382,4.382,0,0,0-1.413,3.39v7.487a5.062,5.062,0,0,0,1.271,3.39,5.283,5.283,0,0,0,3.532,1.413Z" transform="translate(-6136.395 9132.282)"/>
    <path id="Path_1517" data-name="Path 1517" class="cls-1" d="M38.254,69.207a5.418,5.418,0,0,0,1.554,3.673A4.876,4.876,0,0,0,48,69.349V66.1c0,.141-.141.283-.424.565a4.293,4.293,0,0,1-.989.706,5.361,5.361,0,0,1-3.249.848h-.424a5.665,5.665,0,0,1-4.379-1.836A5.874,5.874,0,0,1,36.7,62V54.516a5.665,5.665,0,0,1,1.836-4.379A5.874,5.874,0,0,1,42.916,48.3h.424a6.184,6.184,0,0,1,4.521,1.836A5.874,5.874,0,0,1,49.7,54.516V69.349a5.665,5.665,0,0,1-1.836,4.379,5.874,5.874,0,0,1-4.379,1.836A5.665,5.665,0,0,1,39.1,73.728a5.53,5.53,0,0,1-1.413-2.26,8,8,0,0,1-.424-2.543h.989Zm4.8-2.26a4.823,4.823,0,0,0,4.8-4.8V54.657a4.591,4.591,0,0,0-1.413-3.39,4.382,4.382,0,0,0-3.39-1.413h-.424a4.591,4.591,0,0,0-3.39,1.413,4.382,4.382,0,0,0-1.413,3.39v7.487a4.823,4.823,0,0,0,4.8,4.8Z" transform="translate(-6131.855 9134.181)"/>
    <path id="Path_1518" data-name="Path 1518" class="cls-1" d="M53.9,48.4a5.665,5.665,0,0,1,4.379,1.836,5.874,5.874,0,0,1,1.836,4.379v4.238H48.671V62.1a4.823,4.823,0,0,0,4.8,4.8H53.9a4.591,4.591,0,0,0,3.39-1.413,5.911,5.911,0,0,0,1.13-1.7,9.612,9.612,0,0,0,.283-2.119h1.554a8.225,8.225,0,0,1-.424,2.684,5.53,5.53,0,0,1-1.413,2.26A5.874,5.874,0,0,1,54.04,68.46h-.424a5.665,5.665,0,0,1-4.379-1.836A5.874,5.874,0,0,1,47.4,62.244V54.757a5.665,5.665,0,0,1,1.836-4.379,5.874,5.874,0,0,1,4.379-1.836H53.9Zm-3.814,2.967a4.382,4.382,0,0,0-1.413,3.39v2.684H58.56V54.757a4.591,4.591,0,0,0-1.413-3.39,4.382,4.382,0,0,0-3.39-1.413h-.424a4.512,4.512,0,0,0-3.249,1.413" transform="translate(-6127.439 9134.222)"/>
    <path id="Path_1519" data-name="Path 1519" class="cls-1" d="M64.174,48.3a7.043,7.043,0,0,1,4.1,1.13,4.153,4.153,0,0,1,1.413,1.7,6.719,6.719,0,0,1,.706,2.543H68.836a6.993,6.993,0,0,0-.565-1.836,3.808,3.808,0,0,0-.989-1.13,6.122,6.122,0,0,0-6.216,0A2.954,2.954,0,0,0,59.8,53.1a2.565,2.565,0,0,0,.848,1.978,9.717,9.717,0,0,0,1.836.989,18.48,18.48,0,0,0,2.119.706c.989.283,1.554.424,1.978.565a8.05,8.05,0,0,1,3.532,2.26,4.951,4.951,0,0,1,.848,3.673,5.651,5.651,0,0,1-1.978,3.955A6.9,6.9,0,0,1,64.457,68.5a7.058,7.058,0,0,1-4.379-1.413,3.857,3.857,0,0,1-1.271-1.7A10.956,10.956,0,0,1,58.1,62.85h1.554a5.92,5.92,0,0,0,.565,2.119,7.836,7.836,0,0,0,.848,1.13,6.058,6.058,0,0,0,3.39,1.13,4.641,4.641,0,0,0,3.39-.989,4.2,4.2,0,0,0,1.413-2.825,3.026,3.026,0,0,0-.565-2.543,5.51,5.51,0,0,0-2.684-1.7,15.62,15.62,0,0,0-1.836-.565c-.989-.283-1.7-.565-2.26-.706a10.792,10.792,0,0,1-2.26-1.13,4.091,4.091,0,0,1-1.413-3.249,4.634,4.634,0,0,1,1.978-3.673A4.659,4.659,0,0,1,64.174,48.3" transform="translate(-6123.024 9134.181)"/>
    <path id="Path_1520" data-name="Path 1520" class="cls-1" d="M85.06,43.665a7.436,7.436,0,0,1,2.825,2.26l-1.13.989a11.141,11.141,0,0,0-2.119-1.7,5.882,5.882,0,0,0-6.781.848,4.837,4.837,0,0,0-1.7,3.814,5.27,5.27,0,0,0,1.7,3.814,6.7,6.7,0,0,0,3.955,1.7h1.554v1.554H81.811a6.883,6.883,0,0,0-4.662,1.836,5.372,5.372,0,0,0-1.836,4.238A6.021,6.021,0,0,0,77.29,67.4a7.243,7.243,0,0,0,4.8,1.836,6.625,6.625,0,0,0,4.379-1.554,6.021,6.021,0,0,0,2.26-3.673V57.085H85.766V55.531h7.628v1.554H90.428V70.223H88.874V67.68q0,.212-.848.848a9.9,9.9,0,0,1-1.413,1.13,7.816,7.816,0,0,1-4.379,1.13,8.438,8.438,0,0,1-5.933-2.26A7.226,7.226,0,0,1,75.6,58.5a7.4,7.4,0,0,1,1.554-1.413,5.754,5.754,0,0,1,1.554-.848,6.194,6.194,0,0,1-1.271-.706A5.4,5.4,0,0,1,76.16,54.26a6.585,6.585,0,0,1,.848-9.041,7.129,7.129,0,0,1,5.227-1.978,3.468,3.468,0,0,1,2.825.424" transform="translate(-6116.504 9132.035)"/>
    <path id="Path_1521" data-name="Path 1521" class="cls-1" d="M104.119,50.236a5.874,5.874,0,0,1,1.836,4.379V62.1a6.184,6.184,0,0,1-1.836,4.521A5.874,5.874,0,0,1,99.74,68.46h-.424a5.665,5.665,0,0,1-4.379-1.836A5.874,5.874,0,0,1,93.1,62.244v-.283a5.665,5.665,0,0,1,1.836-4.379,5.874,5.874,0,0,1,4.379-1.836h.424a5.214,5.214,0,0,1,3.249.989c.283.141.565.424.989.706l.565.565V54.757a4.592,4.592,0,0,0-1.413-3.39,4.188,4.188,0,0,0-3.39-1.413,5.062,5.062,0,0,0-3.39,1.271,5.911,5.911,0,0,0-1.13,1.7A8.149,8.149,0,0,0,94.8,54.9H93.241a6.843,6.843,0,0,1,.424-2.543,5.589,5.589,0,0,1,1.413-2.119A6.458,6.458,0,0,1,99.457,48.4a6.07,6.07,0,0,1,4.662,1.836m-8.193,8.335a4.382,4.382,0,0,0-1.413,3.39V62.1a4.823,4.823,0,0,0,4.8,4.8h.424a4.823,4.823,0,0,0,4.8-4.8v-.141a4.592,4.592,0,0,0-1.413-3.39,4.382,4.382,0,0,0-3.39-1.413h-.424a4.679,4.679,0,0,0-3.39,1.413" transform="translate(-6108.581 9134.222)"/>
    <rect id="Rectangle_1565" data-name="Rectangle 1565" class="cls-1" width="1.554" height="26.699" transform="translate(-5999.941 9175.56)"/>
    <rect id="Rectangle_1566" data-name="Rectangle 1566" class="cls-1" width="1.554" height="26.699" transform="translate(-5995.279 9175.56)"/>
    <rect id="Rectangle_1567" data-name="Rectangle 1567" class="cls-1" width="1.554" height="18.647" transform="translate(-5988.922 9183.471)"/>
    <path id="Path_1522" data-name="Path 1522" class="cls-1" d="M122.8,48.4a5.665,5.665,0,0,1,4.379,1.836,5.874,5.874,0,0,1,1.836,4.379v4.238H117.571V62.1a4.823,4.823,0,0,0,4.8,4.8h.424a4.591,4.591,0,0,0,3.39-1.413,5.911,5.911,0,0,0,1.13-1.7,9.611,9.611,0,0,0,.283-2.119h1.554a8.225,8.225,0,0,1-.424,2.684,5.53,5.53,0,0,1-1.413,2.26,5.874,5.874,0,0,1-4.379,1.836h-.424a5.665,5.665,0,0,1-4.379-1.836,5.874,5.874,0,0,1-1.836-4.379V54.757a5.665,5.665,0,0,1,1.836-4.379,5.874,5.874,0,0,1,4.379-1.836h.283Zm-3.814,2.967a4.382,4.382,0,0,0-1.413,3.39v2.684h9.889V54.757a4.591,4.591,0,0,0-1.413-3.39,4.382,4.382,0,0,0-3.39-1.413h-.424a4.512,4.512,0,0,0-3.249,1.413" transform="translate(-6099.007 9134.222)"/>
    <path id="Path_1523" data-name="Path 1523" class="cls-1" d="M133.074,48.3a7.043,7.043,0,0,1,4.1,1.13,4.153,4.153,0,0,1,1.413,1.7,6.72,6.72,0,0,1,.706,2.543h-1.554a7,7,0,0,0-.565-1.836,3.808,3.808,0,0,0-.989-1.13,6.122,6.122,0,0,0-6.216,0,2.954,2.954,0,0,0-1.271,2.4,2.565,2.565,0,0,0,.848,1.978,9.716,9.716,0,0,0,1.836.989,18.482,18.482,0,0,0,2.119.706c.989.283,1.554.424,1.978.565a8.05,8.05,0,0,1,3.532,2.26,4.951,4.951,0,0,1,.848,3.673,5.651,5.651,0,0,1-1.978,3.955,6.9,6.9,0,0,1-4.521,1.271,7.058,7.058,0,0,1-4.379-1.413,3.857,3.857,0,0,1-1.271-1.7A10.956,10.956,0,0,1,127,62.85h1.554a5.92,5.92,0,0,0,.565,2.119,7.836,7.836,0,0,0,.848,1.13,6.058,6.058,0,0,0,3.39,1.13,4.641,4.641,0,0,0,3.39-.989,4.2,4.2,0,0,0,1.413-2.825,3.026,3.026,0,0,0-.565-2.543,5.51,5.51,0,0,0-2.684-1.7,15.617,15.617,0,0,0-1.836-.565c-.989-.283-1.7-.565-2.26-.706a10.793,10.793,0,0,1-2.26-1.13,4.091,4.091,0,0,1-1.413-3.249,4.634,4.634,0,0,1,1.978-3.673,4.659,4.659,0,0,1,3.955-1.554" transform="translate(-6094.591 9134.181)"/>
  </g>
  <path id="Path_1524" data-name="Path 1524" class="cls-1" d="M79.917,0a29.017,29.017,0,1,0,29.017,29.017A29.113,29.113,0,0,0,79.917,0M90.438,53.622V34.956h0V23.248a9.611,9.611,0,0,0-2.885-6.957,9.836,9.836,0,0,0-6.279-2.885H79.917a3.736,3.736,0,0,0-1.358.17h0a9.906,9.906,0,0,0-3.733,1.358h0v3.054a6.8,6.8,0,0,1,4.921-2.036H80.6a7.056,7.056,0,0,1,5.26,2.206,7.056,7.056,0,0,1,2.206,5.26V35.126h0V54.81A25.575,25.575,0,0,1,79.917,56,26.868,26.868,0,0,1,53.106,29.187,27.3,27.3,0,0,1,69.4,4.412V23.248h0V34.956h0a9.611,9.611,0,0,0,2.885,6.957A9.836,9.836,0,0,0,78.559,44.8h1.358a3.736,3.736,0,0,0,1.358-.17h0a9.906,9.906,0,0,0,3.733-1.358V40.217a7.185,7.185,0,0,1-5.091,2.036h-.679a6.8,6.8,0,0,1-5.26-2.206,7.056,7.056,0,0,1-2.206-5.26h0V25.453h0V13.236h0V3.394a25.575,25.575,0,0,1,8.145-1.188A26.778,26.778,0,0,1,90.438,53.622" transform="translate(-6262.9 9175)"/>
</svg>
