<svg xmlns="http://www.w3.org/2000/svg" viewBox="-20336 1113.999 230.99 140.164">
  <defs>
    <style>
      .cls-1 {
        fill: #fff;
      }
    </style>
  </defs>
  <g id="logo" transform="translate(-20336 1113.999)">
    <path id="Path_991" data-name="Path 991" class="cls-1" d="M7.466,75.771a6.8,6.8,0,0,1-5.26-2.206A7.428,7.428,0,0,1,0,68.135V43.7H1.867V54.39c0-.17.17-.339.509-.679a5.156,5.156,0,0,1,1.188-.848,7.883,7.883,0,0,1,3.9-1.018h.509a6.8,6.8,0,0,1,5.26,2.206,7.056,7.056,0,0,1,2.206,5.26v8.994a7.428,7.428,0,0,1-2.206,5.43,7.75,7.75,0,0,1-5.26,2.036Zm4.582-3.563a5.663,5.663,0,0,0,1.527-3.9V59.311a5.515,5.515,0,0,0-1.7-4.073,5.263,5.263,0,0,0-4.073-1.7H7.466a5.515,5.515,0,0,0-4.073,1.7,5.263,5.263,0,0,0-1.7,4.073v8.824a5.515,5.515,0,0,0,1.7,4.073,5.515,5.515,0,0,0,4.073,1.7h.679a6.335,6.335,0,0,0,3.9-1.7" transform="translate(0 30.454)"/>
    <path id="Path_992" data-name="Path 992" class="cls-1" d="M18.915,48.4a6.8,6.8,0,0,1,5.26,2.206,6.643,6.643,0,0,1,1.7,2.715,9.88,9.88,0,0,1,.509,3.224H24.515A13.1,13.1,0,0,0,24.175,54a3.378,3.378,0,0,0-1.358-2.036,5.263,5.263,0,0,0-4.073-1.7h-.509a5.515,5.515,0,0,0-4.073,1.7,5.263,5.263,0,0,0-1.7,4.073V71.987H10.6V56.036a6.8,6.8,0,0,1,2.206-5.26,7.056,7.056,0,0,1,5.26-2.206h.848Z" transform="translate(7.387 33.73)"/>
    <rect id="Rectangle_1020" data-name="Rectangle 1020" class="cls-1" width="1.867" height="22.399" transform="translate(37.332 83.148)"/>
    <path id="Path_993" data-name="Path 993" class="cls-1" d="M27.906,73.565a7.056,7.056,0,0,1-2.206-5.26V59.311a6.8,6.8,0,0,1,2.206-5.26,7.056,7.056,0,0,1,5.26-2.206h.509a7.438,7.438,0,0,1,3.9,1.018,5.157,5.157,0,0,1,1.188.848c.339.339.679.679.509.679V43.7h1.867V68.135a7.428,7.428,0,0,1-2.206,5.43,7.056,7.056,0,0,1-5.26,2.206h-.509a7.758,7.758,0,0,1-5.26-2.206m5.43.339h.509a5.794,5.794,0,0,0,5.769-5.769V59.142a5.515,5.515,0,0,0-1.7-4.073,5.263,5.263,0,0,0-4.073-1.7h-.509a5.515,5.515,0,0,0-4.073,1.7,5.263,5.263,0,0,0-1.7,4.073v8.994a6.081,6.081,0,0,0,1.527,4.073,6.346,6.346,0,0,0,4.242,1.7Z" transform="translate(17.91 30.454)"/>
    <path id="Path_994" data-name="Path 994" class="cls-1" d="M38.567,73.414a6.508,6.508,0,0,0,1.867,4.412,5.953,5.953,0,0,0,8.145-.17,5.515,5.515,0,0,0,1.7-4.073v-3.9c0,.17-.17.339-.509.679a5.156,5.156,0,0,1-1.188.848,6.439,6.439,0,0,1-3.9,1.018h-.509a6.8,6.8,0,0,1-5.26-2.206A7.056,7.056,0,0,1,36.7,64.76V55.766a6.8,6.8,0,0,1,2.206-5.26,7.056,7.056,0,0,1,5.26-2.206h.509a7.428,7.428,0,0,1,5.43,2.206,7.056,7.056,0,0,1,2.206,5.26V73.584a6.8,6.8,0,0,1-2.206,5.26,7.056,7.056,0,0,1-5.26,2.206,6.8,6.8,0,0,1-5.26-2.206,6.643,6.643,0,0,1-1.7-2.715,9.609,9.609,0,0,1-.509-3.054h1.188ZM44.336,70.7a5.794,5.794,0,0,0,5.769-5.769V55.936a5.515,5.515,0,0,0-1.7-4.073,5.263,5.263,0,0,0-4.073-1.7h-.509a5.515,5.515,0,0,0-4.073,1.7,5.263,5.263,0,0,0-1.7,4.073V64.93A5.794,5.794,0,0,0,43.827,70.7Z" transform="translate(25.576 33.66)"/>
    <path id="Path_995" data-name="Path 995" class="cls-1" d="M55.206,48.4a6.8,6.8,0,0,1,5.26,2.206,7.056,7.056,0,0,1,2.206,5.26v5.091H48.927v3.9A5.794,5.794,0,0,0,54.7,70.629h.509a5.515,5.515,0,0,0,4.073-1.7A7.1,7.1,0,0,0,60.636,66.9a11.545,11.545,0,0,0,.339-2.545h1.867a9.88,9.88,0,0,1-.509,3.224,6.643,6.643,0,0,1-1.7,2.715,7.056,7.056,0,0,1-5.26,2.206h-.509a6.8,6.8,0,0,1-5.26-2.206A7.056,7.056,0,0,1,47.4,65.03V56.036a6.8,6.8,0,0,1,2.206-5.26,7.056,7.056,0,0,1,5.26-2.206h.339Zm-4.582,3.563a5.263,5.263,0,0,0-1.7,4.073V59.26H60.805V56.036a5.515,5.515,0,0,0-1.7-4.073,5.263,5.263,0,0,0-4.073-1.7h-.509a5.42,5.42,0,0,0-3.9,1.7" transform="translate(33.033 33.73)"/>
    <path id="Path_996" data-name="Path 996" class="cls-1" d="M65.4,48.3a8.46,8.46,0,0,1,4.921,1.358,4.989,4.989,0,0,1,1.7,2.036,8.071,8.071,0,0,1,.848,3.054H71a8.4,8.4,0,0,0-.679-2.206,4.575,4.575,0,0,0-1.188-1.358A6.1,6.1,0,0,0,65.4,50.167a6.1,6.1,0,0,0-3.733,1.018,3.548,3.548,0,0,0-1.527,2.885,3.081,3.081,0,0,0,1.018,2.376,11.672,11.672,0,0,0,2.206,1.188,22.2,22.2,0,0,0,2.545.848c1.188.339,1.867.509,2.376.679a9.669,9.669,0,0,1,4.242,2.715,5.947,5.947,0,0,1,1.018,4.412,6.788,6.788,0,0,1-2.376,4.751,8.29,8.29,0,0,1-5.43,1.527,8.478,8.478,0,0,1-5.26-1.7,4.633,4.633,0,0,1-1.527-2.036,13.161,13.161,0,0,1-.848-3.054h1.867a7.111,7.111,0,0,0,.679,2.545,9.413,9.413,0,0,0,1.018,1.358,7.277,7.277,0,0,0,4.073,1.358c1.867,0,3.224-.339,4.073-1.188a5.049,5.049,0,0,0,1.7-3.394,3.635,3.635,0,0,0-.679-3.054A6.619,6.619,0,0,0,67.6,61.366a18.762,18.762,0,0,0-2.206-.679c-1.188-.339-2.036-.679-2.715-.848a12.964,12.964,0,0,1-2.715-1.358,4.914,4.914,0,0,1-1.7-3.9,5.566,5.566,0,0,1,2.376-4.412C61.663,48.809,63.36,48.3,65.4,48.3" transform="translate(40.49 33.66)"/>
    <path id="Path_997" data-name="Path 997" class="cls-1" d="M87.305,43.779A8.932,8.932,0,0,1,90.7,46.494l-1.358,1.188A13.383,13.383,0,0,0,86.8,45.645a7.065,7.065,0,0,0-8.145,1.018,5.81,5.81,0,0,0-2.036,4.582,6.33,6.33,0,0,0,2.036,4.582A8.051,8.051,0,0,0,83.4,57.863h1.867V59.73H83.4a8.268,8.268,0,0,0-5.6,2.206A6.453,6.453,0,0,0,75.6,67.026a7.232,7.232,0,0,0,2.376,5.26,8.7,8.7,0,0,0,5.769,2.206A7.958,7.958,0,0,0,89,72.626a7.232,7.232,0,0,0,2.715-4.412V59.9H88.154V58.033h9.163V59.9H93.754V75.68H91.887V72.626q0,.255-1.018,1.018A11.888,11.888,0,0,1,89.172,75a9.389,9.389,0,0,1-5.26,1.358,10.135,10.135,0,0,1-7.127-2.715A8.68,8.68,0,0,1,75.936,61.6,8.893,8.893,0,0,1,77.8,59.9a6.912,6.912,0,0,1,1.867-1.018,7.44,7.44,0,0,1-1.527-.848,6.48,6.48,0,0,1-1.527-1.527,7.91,7.91,0,0,1,1.018-10.86,8.563,8.563,0,0,1,6.279-2.376,4.165,4.165,0,0,1,3.394.509" transform="translate(51.501 30.036)"/>
    <path id="Path_998" data-name="Path 998" class="cls-1" d="M106.336,50.606a7.056,7.056,0,0,1,2.206,5.26V64.86a7.428,7.428,0,0,1-2.206,5.43,7.056,7.056,0,0,1-5.26,2.206h-.509a6.8,6.8,0,0,1-5.26-2.206A7.056,7.056,0,0,1,93.1,65.03V64.69a6.8,6.8,0,0,1,2.206-5.26,7.056,7.056,0,0,1,5.26-2.206h.509a6.263,6.263,0,0,1,3.9,1.188c.339.17.679.509,1.188.848l.679.679v-3.9a5.515,5.515,0,0,0-1.7-4.073,5.031,5.031,0,0,0-4.073-1.7A6.081,6.081,0,0,0,97,51.794a7.1,7.1,0,0,0-1.358,2.036,9.789,9.789,0,0,0-.509,2.376H93.27a8.22,8.22,0,0,1,.509-3.054,6.713,6.713,0,0,1,1.7-2.545,7.758,7.758,0,0,1,5.26-2.206,7.291,7.291,0,0,1,5.6,2.206M96.494,60.618a5.263,5.263,0,0,0-1.7,4.073v.17a5.794,5.794,0,0,0,5.769,5.769h.509a5.794,5.794,0,0,0,5.769-5.769v-.17a5.515,5.515,0,0,0-1.7-4.073,5.263,5.263,0,0,0-4.073-1.7h-.509a5.62,5.62,0,0,0-4.073,1.7" transform="translate(64.881 33.73)"/>
    <rect id="Rectangle_1021" data-name="Rectangle 1021" class="cls-1" width="1.867" height="32.071" transform="translate(176.647 73.645)"/>
    <rect id="Rectangle_1022" data-name="Rectangle 1022" class="cls-1" width="1.867" height="32.071" transform="translate(182.247 73.645)"/>
    <rect id="Rectangle_1023" data-name="Rectangle 1023" class="cls-1" width="1.867" height="22.399" transform="translate(189.883 83.148)"/>
    <path id="Path_999" data-name="Path 999" class="cls-1" d="M124.106,48.4a6.8,6.8,0,0,1,5.26,2.206,7.056,7.056,0,0,1,2.206,5.26v5.091H117.827v3.9a5.794,5.794,0,0,0,5.769,5.769h.509a5.515,5.515,0,0,0,4.073-1.7,7.1,7.1,0,0,0,1.358-2.036,11.546,11.546,0,0,0,.339-2.545h1.867a9.88,9.88,0,0,1-.509,3.224,6.643,6.643,0,0,1-1.7,2.715,7.056,7.056,0,0,1-5.26,2.206h-.509a6.8,6.8,0,0,1-5.26-2.206,7.056,7.056,0,0,1-2.206-5.26V56.036a6.8,6.8,0,0,1,2.206-5.26,7.056,7.056,0,0,1,5.26-2.206h.339Zm-4.582,3.563a5.263,5.263,0,0,0-1.7,4.073V59.26h11.878V56.036a5.515,5.515,0,0,0-1.7-4.073,5.263,5.263,0,0,0-4.073-1.7h-.509a5.42,5.42,0,0,0-3.9,1.7" transform="translate(81.049 33.73)"/>
    <path id="Path_1000" data-name="Path 1000" class="cls-1" d="M134.3,48.3a8.46,8.46,0,0,1,4.921,1.358,4.989,4.989,0,0,1,1.7,2.036,8.071,8.071,0,0,1,.848,3.054H139.9a8.4,8.4,0,0,0-.679-2.206,4.575,4.575,0,0,0-1.188-1.358,7.353,7.353,0,0,0-7.466,0,3.548,3.548,0,0,0-1.527,2.885,3.081,3.081,0,0,0,1.018,2.376,11.672,11.672,0,0,0,2.206,1.188,22.2,22.2,0,0,0,2.545.848c1.188.339,1.867.509,2.376.679a9.669,9.669,0,0,1,4.242,2.715,5.947,5.947,0,0,1,1.018,4.412,6.788,6.788,0,0,1-2.376,4.751,8.29,8.29,0,0,1-5.43,1.527,8.478,8.478,0,0,1-5.26-1.7,4.633,4.633,0,0,1-1.527-2.036A13.161,13.161,0,0,1,127,65.778h1.867a7.112,7.112,0,0,0,.679,2.545,9.413,9.413,0,0,0,1.018,1.358,7.277,7.277,0,0,0,4.073,1.358c1.867,0,3.224-.339,4.073-1.188a5.048,5.048,0,0,0,1.7-3.394,3.635,3.635,0,0,0-.679-3.054,6.619,6.619,0,0,0-3.224-2.036,18.759,18.759,0,0,0-2.206-.679c-1.188-.339-2.036-.679-2.715-.848a12.965,12.965,0,0,1-2.715-1.358,4.914,4.914,0,0,1-1.7-3.9,5.566,5.566,0,0,1,2.376-4.412c1.018-1.358,2.715-1.867,4.751-1.867" transform="translate(88.506 33.66)"/>
    <path id="Path_1001" data-name="Path 1001" class="cls-1" d="M79.917,0a29.017,29.017,0,1,0,29.017,29.017A29.113,29.113,0,0,0,79.917,0M90.438,53.622V34.956h0V23.248a9.611,9.611,0,0,0-2.885-6.957,9.836,9.836,0,0,0-6.279-2.885H79.917a3.736,3.736,0,0,0-1.358.17h0a9.906,9.906,0,0,0-3.733,1.358h0v3.054a6.8,6.8,0,0,1,4.921-2.036H80.6a7.056,7.056,0,0,1,5.26,2.206,7.056,7.056,0,0,1,2.206,5.26V35.126h0V54.81A25.575,25.575,0,0,1,79.917,56,26.868,26.868,0,0,1,53.106,29.187,27.3,27.3,0,0,1,69.4,4.412V23.248h0V34.956h0a9.611,9.611,0,0,0,2.885,6.957A9.836,9.836,0,0,0,78.559,44.8h1.358a3.736,3.736,0,0,0,1.358-.17h0a9.906,9.906,0,0,0,3.733-1.358V40.217a7.185,7.185,0,0,1-5.091,2.036h-.679a6.8,6.8,0,0,1-5.26-2.206,7.056,7.056,0,0,1-2.206-5.26h0V25.453h0V13.236h0V3.394a25.575,25.575,0,0,1,8.145-1.188A26.778,26.778,0,0,1,90.438,53.622" transform="translate(35.472)"/>
    <path id="Path_1002" data-name="Path 1002" class="cls-1" d="M27.639,77.427V75.9h2.715a2.152,2.152,0,0,1,1.018.17c.339,0,.509.17.848.339l.509.509a1.272,1.272,0,0,1,.17.848,2.412,2.412,0,0,1-.339,1.018,1.325,1.325,0,0,1-.679.679,3.71,3.71,0,0,1-.848.509,1.53,1.53,0,0,1-.848.17c.17.17.17.339.339.509s.339.509.509.679c.17.339.509.509.679.848s.509.509.679.848a1.325,1.325,0,0,0,.679.679l.509.509H32.221a3.709,3.709,0,0,1-.509-.848,4.5,4.5,0,0,0-.848-1.018,5.156,5.156,0,0,1-.848-1.188,4.5,4.5,0,0,1-.848-1.018h-.509v4.073H27.3V79.124a2.791,2.791,0,0,0,.339-1.7M29,79.8h1.358a.882.882,0,0,0,.679-.339l.509-.509a1.272,1.272,0,0,0,.17-.848,1.53,1.53,0,0,0-.17-.848l-.509-.509c-.17-.17-.339-.17-.679-.17H28.488v3.394c.339-.17.339-.17.509-.17" transform="translate(19.025 52.895)"/>
    <path id="Path_1003" data-name="Path 1003" class="cls-1" d="M32.809,77.427V75.9h4.073v.679H33.658v3.054h3.054v.679H33.658v3.394H36.2c.339,0,.509,0,.679-.17v.679H32.3V79.124a2.229,2.229,0,0,0,.509-1.7" transform="translate(22.51 52.895)"/>
    <path id="Path_1004" data-name="Path 1004" class="cls-1" d="M44.106,84.384H42.748c0-.17-.17-.339-.17-.679-.17-.339-.17-.509-.339-.848s-.17-.509-.339-.848-.17-.509-.339-.848H38.506a8.272,8.272,0,0,0-.679,1.867,11.692,11.692,0,0,1-.509,1.358H36.3a46.121,46.121,0,0,0,1.867-4.242c.679-1.358,1.188-2.885,1.867-4.242h.17a6.028,6.028,0,0,0,.679,1.527c.17.509.509,1.188.679,1.7s.509,1.188.679,1.7.509,1.018.679,1.527.339.848.509,1.358c.509.17.679.339.679.679m-5.43-3.9h2.715l-1.358-3.054Z" transform="translate(25.297 52.895)"/>
    <path id="Path_1005" data-name="Path 1005" class="cls-1" d="M42.5,77.427V75.9h1.358v7.806h1.7a6.366,6.366,0,0,0,1.7-.17v.679H42.5V77.427" transform="translate(29.618 52.895)"/>
    <path id="Path_1006" data-name="Path 1006" class="cls-1" d="M49.709,77.427V75.9h4.073v.679H50.558v3.054h3.054v.679H50.558v3.394H53.1c.339,0,.509,0,.679-.17v.679H49.2V79.124a2.229,2.229,0,0,0,.509-1.7" transform="translate(34.287 52.895)"/>
    <path id="Path_1007" data-name="Path 1007" class="cls-1" d="M54.148,83.2c.17.17.17.339.339.339.17.17.339.17.509.339.17,0,.509.17.679.17.339,0,.509,0,.679-.17s.339-.17.509-.339.339-.339.339-.509.17-.509.17-.679a1.3,1.3,0,0,0-.339-.848c-.17-.17-.509-.339-.679-.509-.339-.17-.509-.339-.848-.339a3.708,3.708,0,0,1-.848-.509,1.325,1.325,0,0,1-.679-.679,2.453,2.453,0,0,1-.339-1.188,2.152,2.152,0,0,1,.17-1.018,2.342,2.342,0,0,1,.509-.679,3.709,3.709,0,0,1,.848-.509,3.139,3.139,0,0,1,2.036,0,2.26,2.26,0,0,1,.848.509c0,.17-.17.339-.17.509s-.17.339-.17.509h-.17c0-.17-.17-.17-.17-.339a.365.365,0,0,0-.339-.339c-.17-.17-.339-.17-.339-.339-.17,0-.339-.17-.509-.17a1.02,1.02,0,0,0-.679.17c-.17,0-.339.17-.509.339s-.17.339-.339.509c0,.17-.17.339-.17.679a1.3,1.3,0,0,0,.339.848c.17.17.509.339.679.509.339.17.509.339.848.339a3.709,3.709,0,0,1,.848.509,1.325,1.325,0,0,1,.679.679,2.412,2.412,0,0,1,.339,1.018,2.152,2.152,0,0,1-.17,1.018,3.71,3.71,0,0,1-.509.848c-.339.17-.509.509-1.018.509a2.888,2.888,0,0,1-1.188.17,2.516,2.516,0,0,1-1.188-.17c-.339-.17-.509-.339-.848-.509,0-.17.17-.339.17-.509v-.509h.17c.339,0,.509.17.509.339" transform="translate(37.145 52.895)"/>
    <path id="Path_1008" data-name="Path 1008" class="cls-1" d="M60.145,76.579H57.6V75.9h6.109v.679H61.163v7.636H59.806V79.124a6.6,6.6,0,0,0,.339-2.545" transform="translate(40.141 52.895)"/>
    <path id="Path_1009" data-name="Path 1009" class="cls-1" d="M69.506,84.384H68.148c0-.17-.17-.339-.17-.679-.17-.339-.17-.509-.339-.848s-.17-.509-.339-.848-.17-.509-.339-.848H63.906a8.272,8.272,0,0,0-.679,1.867,11.69,11.69,0,0,1-.509,1.358H61.7a46.121,46.121,0,0,0,1.867-4.242c.679-1.358,1.188-2.885,1.867-4.242h.17a6.028,6.028,0,0,0,.679,1.527c.17.509.509,1.188.679,1.7s.509,1.188.679,1.7.509,1.018.679,1.527.339.848.509,1.358c.509.17.509.339.679.679m-5.43-3.9h2.715l-1.358-3.054Z" transform="translate(42.999 52.895)"/>
    <path id="Path_1010" data-name="Path 1010" class="cls-1" d="M69.345,76.579H66.8V75.9h6.109v.679H70.363v7.636H69.006V79.124a6.6,6.6,0,0,0,.339-2.545" transform="translate(46.553 52.895)"/>
    <path id="Path_1011" data-name="Path 1011" class="cls-1" d="M72.209,77.427V75.9h4.073v.679H73.058v3.054h3.054v.679H73.058v3.394H75.6c.339,0,.509,0,.679-.17v.679H71.7V79.124a2.229,2.229,0,0,0,.509-1.7" transform="translate(49.968 52.895)"/>
    <rect id="Rectangle_1024" data-name="Rectangle 1024" class="cls-1" width="0.679" height="12.218" transform="translate(134.734 127.946)"/>
    <path id="Path_1012" data-name="Path 1012" class="cls-1" d="M85.039,77.427V75.9h3.394a6.1,6.1,0,0,1,1.867.339,3.044,3.044,0,0,1,1.188.848,4.253,4.253,0,0,1,.679,1.188,4.729,4.729,0,0,1,.17,1.7A6.329,6.329,0,0,1,92,82.009a9.413,9.413,0,0,1-1.018,1.358,5.081,5.081,0,0,1-1.358.679,4.7,4.7,0,0,1-1.527.17H84.7V79.124a2.791,2.791,0,0,0,.339-1.7m1.188,6.279a1.283,1.283,0,0,1,.679.17h.848a3.736,3.736,0,0,0,1.358-.17,2.735,2.735,0,0,0,1.188-.679,3.044,3.044,0,0,0,.848-1.188,6.329,6.329,0,0,0,.339-2.036,4.258,4.258,0,0,0-.339-1.7,1.558,1.558,0,0,0-.679-1.018,1.467,1.467,0,0,0-1.018-.509,3.308,3.308,0,0,0-1.358-.17H87.076a1.272,1.272,0,0,0-.848.17V81.16a6.427,6.427,0,0,0,0,2.545" transform="translate(59.027 52.895)"/>
    <path id="Path_1013" data-name="Path 1013" class="cls-1" d="M97.509,77.327V75.97h.848v4.921c0,.509-.17,1.018-.17,1.527a1.558,1.558,0,0,1-.679,1.018,3.55,3.55,0,0,1-1.018.679,4.213,4.213,0,0,1-1.527.17,4.318,4.318,0,0,1-2.715-.848,3.513,3.513,0,0,1-.848-2.545V75.8h1.357v5.091a1.53,1.53,0,0,0,.17.848c0,.339.17.509.17.848a2.342,2.342,0,0,0,.509.679,3.71,3.71,0,0,0,.848.509,4.243,4.243,0,0,0,2.376,0,2.342,2.342,0,0,0,.679-.509c.17-.17.339-.509.509-.679a1.53,1.53,0,0,0,.17-.848,1.272,1.272,0,0,1,.17-.848v-.848a4.317,4.317,0,0,1-.848-2.715" transform="translate(63.697 52.825)"/>
    <path id="Path_1014" data-name="Path 1014" class="cls-1" d="M97.5,77.427V75.9h3.733c.339,0,.509.17.848.339l.509.509a1.272,1.272,0,0,1,.17.848,1.67,1.67,0,0,1-.509,1.358,3.2,3.2,0,0,1-1.527.679h0a2.533,2.533,0,0,1,1.7.509,2.151,2.151,0,0,1,.679,1.527,2.452,2.452,0,0,1-.339,1.188c-.17.339-.509.509-.679.679a2.412,2.412,0,0,1-1.018.339c-.339,0-.679.17-1.018.17H98.009V78.954c-.339-.339-.339-1.018-.509-1.527m2.545,2.206a.882.882,0,0,0,.679-.339l.509-.509a2.206,2.206,0,0,0,0-1.7l-.509-.509c-.17-.17-.339-.17-.679-.17H98.518v3.224h1.527m-1.358,3.054v1.188h1.188c.339,0,.509,0,.679-.17s.509-.17.679-.339a2.342,2.342,0,0,0,.509-.679,2.206,2.206,0,0,0,0-1.7l-.509-.509c-.17-.17-.509-.17-.848-.339h-1.7v2.545" transform="translate(67.948 52.895)"/>
    <path id="Path_1015" data-name="Path 1015" class="cls-1" d="M109.606,84.384h-1.357c0-.17-.17-.339-.17-.679-.17-.339-.17-.509-.339-.848s-.17-.509-.339-.848-.17-.509-.339-.848h-3.054a8.271,8.271,0,0,0-.679,1.867,11.691,11.691,0,0,1-.509,1.358H101.8a46.119,46.119,0,0,0,1.867-4.242c.679-1.358,1.188-2.885,1.867-4.242h.17a6.027,6.027,0,0,0,.679,1.527c.17.509.509,1.188.679,1.7s.509,1.188.679,1.7.509,1.018.679,1.527.339.848.509,1.358a1.325,1.325,0,0,1,.679.679m-5.43-3.9h2.715l-1.358-3.054Z" transform="translate(70.944 52.895)"/>
    <path id="Path_1016" data-name="Path 1016" class="cls-1" d="M107.9,77.427V75.9h1.357v8.315H107.9V79.124c0-.509,0-1.018,0-1.7" transform="translate(75.195 52.895)"/>
  </g>
</svg>
